<svg xmlns="http://www.w3.org/2000/svg" viewBox="0 0 395.89 92.85"><defs><style>.cls-1{fill:#96c0e7;}.cls-2{fill:#35a4df;}.cls-3{fill:#2e579e;}.cls-4{fill:#434343;}.cls-5,.cls-7{fill:#0f0e0f;}.cls-5{fill-rule:evenodd;}.cls-6,.cls-8{fill:none;stroke:#0f0e0f;stroke-miterlimit:10;}.cls-6{stroke-width:0.18px;}.cls-8{stroke-width:0.42px;}</style></defs><title>LogoCREDCOM_ColoresPlanos</title><g id="Capa_2" data-name="Capa 2"><g id="Capa_1-2" data-name="Capa 1"><polyline class="cls-1" points="23.14 78.69 23.14 54.93 21.66 54.93 25.16 49.55 28.67 54.93 27.09 54.93 27.09 78.69 23.14 78.69"/><polyline class="cls-2" points="29.71 78.72 29.71 46.31 28.24 46.31 31.75 40.94 35.25 46.31 33.67 46.31 33.67 78.72 29.71 78.72"/><polyline class="cls-3" points="36.27 78.72 36.27 36.05 34.53 36.05 38.59 29.78 42.52 36.05 40.79 36.05 40.79 78.72 36.27 78.72"/><path class="cls-3" d="M5.28,33A27.38,27.38,0,0,1,29.87,5.61V.15a32.74,32.74,0,0,0-10,62.71V57.17A26.92,26.92,0,0,1,5.28,33"/><path class="cls-3" d="M44.37,78.9l0-15.14,0-5.54V57H47A27,27,0,0,0,61.4,33c0-15.13-12-27-27.16-27.56V0A32.74,32.74,0,0,1,50.1,61.12V78.9H44.37"/><polyline class="cls-4" points="21.81 80.3 52.59 80.3 52.59 85.31 21.81 85.31 21.81 80.3"/><path class="cls-4" d="M50.34,92.85a2.39,2.39,0,0,0,2.39-2.39V87.78H21.65v2.68A2.39,2.39,0,0,0,24,92.85H50.34"/><path class="cls-3" d="M110.63,34.75v5.31H87.25c-1.53,0-3.33,1.92-4.12,3.25A9.05,9.05,0,0,0,82.25,48a8.7,8.7,0,0,0,.88,4.54c.79,1.32,2,3.46,3.49,3.46h24v5.1H87a9.41,9.41,0,0,1-7.88-3.48q-2.72-3.47-2.72-9.67t2.72-9.68A9.43,9.43,0,0,1,87,34.75h23.62"/><path class="cls-3" d="M130.8,48.57a2.39,2.39,0,0,0-.44-1.52,1.15,1.15,0,0,0-1-.42l-10.14,0V61h-4.09V41.79l14.92-.07a4.15,4.15,0,0,1,3.67,1.9,7.08,7.08,0,0,1,1.14,4v2H130.8v-1"/><path class="cls-3" d="M145.45,56.5h14.2V61H144.91a5.45,5.45,0,0,1-4.85-2.54,12.78,12.78,0,0,1-1.68-7.08,12.76,12.76,0,0,1,1.68-7.08,5.45,5.45,0,0,1,4.85-2.54h14.74v4.53h-14.2a2.3,2.3,0,0,0-1.86.9,7.59,7.59,0,0,0-.88,1.94l0,.07h17v4.33h-17l0,.1a6.52,6.52,0,0,0,.88,1.94,2.3,2.3,0,0,0,1.86.9"/><path class="cls-3" d="M170.39,46.6a2.32,2.32,0,0,0-2.16,1.45,7.51,7.51,0,0,0-.63,3.36,7.54,7.54,0,0,0,.63,3.36,2.34,2.34,0,0,0,2.16,1.45h12.19V46.6H170.39M169.85,61q-4.18,0-5.75-4.36a15.72,15.72,0,0,1-.78-5.26q0-6.27,3-8.52a5.77,5.77,0,0,1,3.5-1.1h12.73V34.1h4.09V61Z"/><path class="cls-3" d="M212,41.79V46.6H198a2.32,2.32,0,0,0-2.15,1.45,7.51,7.51,0,0,0-.63,3.36,7.54,7.54,0,0,0,.63,3.36A2.33,2.33,0,0,0,198,56.22h14V61H197.48a5.48,5.48,0,0,1-4.86-2.54A12.87,12.87,0,0,1,191,51.41a12.85,12.85,0,0,1,1.67-7.08,5.48,5.48,0,0,1,4.86-2.54H212"/><path class="cls-3" d="M222.34,45.63a1.79,1.79,0,0,0-1.47.86,3.57,3.57,0,0,0-.61,2.08v4.78a3.54,3.54,0,0,0,.61,2.07,1.78,1.78,0,0,0,1.47.87H232.8a1.78,1.78,0,0,0,1.47-.87,3.47,3.47,0,0,0,.61-2.07V48.57a3.5,3.5,0,0,0-.61-2.08,1.79,1.79,0,0,0-1.47-.86H222.34m-1.22-4.5h13.1a4.31,4.31,0,0,1,3.58,2.09,8.55,8.55,0,0,1,1.48,5.07V53.9A8.53,8.53,0,0,1,237.8,59a4.28,4.28,0,0,1-3.58,2.11h-13.1A4.29,4.29,0,0,1,217.55,59a8.47,8.47,0,0,1-1.49-5.05V48.29a8.49,8.49,0,0,1,1.49-5.07A4.32,4.32,0,0,1,221.12,41.13Z"/><path class="cls-3" d="M267,48.6c0-1.33-.48-2-1.42-2h-6.68V61h-4.08V46.6h-8V61h-4.08V41.79h23.49a4.18,4.18,0,0,1,3.7,1.86,7.22,7.22,0,0,1,1.12,4V61H267V48.6"/><path class="cls-1" d="M309.47,48.72a3.46,3.46,0,0,0,3-1.44,5.58,5.58,0,0,0,.89-3.34,5.58,5.58,0,0,0-.89-3.34,3.47,3.47,0,0,0-3-1.45H291.32v9.57h18.15m.76-14.35q5.85,0,8,4.34a11.48,11.48,0,0,1,1.1,5.23q0,6.23-4.25,8.47a10.4,10.4,0,0,1-4.89,1.1H291.32v7.64H285.6V34.37Z"/><path class="cls-1" d="M342.16,56.49V53.56h-13c-.86,0-1.28.49-1.28,1.48s.42,1.45,1.28,1.45h13m-17.4-10.15V41.83H341a4.58,4.58,0,0,1,3.82,1.79A6.08,6.08,0,0,1,346,46.2a17.73,17.73,0,0,1,.21,3.11V61H328.09A3.69,3.69,0,0,1,325,59.46a7.19,7.19,0,0,1-1.15-4.35A7.08,7.08,0,0,1,325,50.78a3.71,3.71,0,0,1,3.12-1.54h14.07v-.17c0-1.42-.38-2.29-1.12-2.59a3,3,0,0,0-1.05-.14Z"/><path class="cls-1" d="M366.14,48.59a2.39,2.39,0,0,0-.44-1.52,1.12,1.12,0,0,0-1-.41l-10.1,0V61h-4.06V41.83l14.84-.07a4.13,4.13,0,0,1,3.65,1.89,7.05,7.05,0,0,1,1.14,4v2h-4.06v-1"/><path class="cls-1" d="M377.94,53.56A3.67,3.67,0,0,1,374.86,52a6.93,6.93,0,0,1-1.18-4.26q0-3.55,2-5.15a3.58,3.58,0,0,1,2.29-.75h17.22v4.51H378.74c-.89,0-1.34.49-1.34,1.46s.45,1.44,1.34,1.44l12.89,0a3.68,3.68,0,0,1,3.08,1.58,7,7,0,0,1,1.18,4.28c0,2.42-.66,4.13-2,5.15a3.62,3.62,0,0,1-2.29.72H373.68V56.49l17.15,0c.89,0,1.34-.49,1.34-1.48s-.45-1.45-1.34-1.45l-12.89,0"/><path class="cls-5" d="M359.11,77.35a2.48,2.48,0,0,0-.42-.91,1.88,1.88,0,0,0-.73-.55,2.19,2.19,0,0,0-.94-.21,2,2,0,0,0-1.41.53,2.32,2.32,0,0,0-.65,1.14Zm0,1.49.6.31a3.29,3.29,0,0,1-.68.93,2.58,2.58,0,0,1-.88.54,2.86,2.86,0,0,1-1.09.19,2.65,2.65,0,0,1-2.12-.89,3,3,0,0,1-.12-3.87,2.67,2.67,0,0,1,2.2-1,2.71,2.71,0,0,1,2.26,1.07,3,3,0,0,1,.62,1.88h-5a2.21,2.21,0,0,0,.62,1.58,2,2,0,0,0,1.47.61,2.58,2.58,0,0,0,.83-.14,2.24,2.24,0,0,0,.68-.39A3.24,3.24,0,0,0,359.1,78.84Zm-16.23-5.76h.71v2.06h1.12v.62h-1.12v4.91h-.71V75.76h-1v-.62h1Zm-15.61,2.06H328v1a2.87,2.87,0,0,1,.95-.84,2.28,2.28,0,0,1,1.13-.28,2,2,0,0,1,1.1.31,1.85,1.85,0,0,1,.71.85,4.51,4.51,0,0,1,.23,1.66v2.84h-.71V78a6,6,0,0,0-.08-1.28,1.49,1.49,0,0,0-.48-.82,1.46,1.46,0,0,0-.92-.28,1.79,1.79,0,0,0-1.16.43,2,2,0,0,0-.67,1,7.31,7.31,0,0,0-.1,1.51v2h-.71Zm-10.74,2.21a2.33,2.33,0,0,0-.41-.91,2,2,0,0,0-.73-.55,2.23,2.23,0,0,0-.95-.21,2,2,0,0,0-1.4.53,2.25,2.25,0,0,0-.65,1.14Zm0,1.49.59.31a3,3,0,0,1-.68.93,2.64,2.64,0,0,1-.87.54,2.92,2.92,0,0,1-1.1.19,2.66,2.66,0,0,1-2.12-.89,3,3,0,0,1-.76-2,2.9,2.9,0,0,1,.65-1.87,2.65,2.65,0,0,1,2.19-1,2.72,2.72,0,0,1,2.27,1.07A2.93,2.93,0,0,1,317.3,78h-5a2.26,2.26,0,0,0,.62,1.58,2,2,0,0,0,1.48.61,2.63,2.63,0,0,0,.83-.14,2.37,2.37,0,0,0,.68-.39A3.24,3.24,0,0,0,316.52,78.84ZM298.87,75.7a2.18,2.18,0,0,0-1.12.29,2,2,0,0,0-.81.8,2.21,2.21,0,0,0-.3,1.12,2,2,0,0,0,.61,1.5,2.4,2.4,0,0,0,3.16,0,2.13,2.13,0,0,0,.6-1.55,2.3,2.3,0,0,0-.28-1.12A2,2,0,0,0,300,76,2.12,2.12,0,0,0,298.87,75.7Zm2.1-.56h.71v4.4a5.3,5.3,0,0,1-.2,1.7,2.26,2.26,0,0,1-1,1.18,3.24,3.24,0,0,1-1.66.41,4,4,0,0,1-1.28-.2,2.68,2.68,0,0,1-.92-.55,3.32,3.32,0,0,1-.65-1h.77a2,2,0,0,0,.81.81,3,3,0,0,0,2.47,0,1.65,1.65,0,0,0,.71-.67A3.13,3.13,0,0,0,301,79.9v-.28a2.58,2.58,0,0,1-1,.78,2.84,2.84,0,0,1-1.23.27,2.76,2.76,0,0,1-1.43-.38,2.66,2.66,0,0,1-1-1,2.88,2.88,0,0,1,0-2.84A2.88,2.88,0,0,1,298.78,75a2.66,2.66,0,0,1,1.16.25,3.13,3.13,0,0,1,1,.84Zm-15.61,0h.71v5.53h-.71Zm.35-2.27a.62.62,0,0,1,.59.59.58.58,0,0,1-.18.42.57.57,0,0,1-.41.17.58.58,0,0,1-.41-.17.61.61,0,0,1-.17-.42.57.57,0,0,1,.17-.41A.55.55,0,0,1,285.71,72.87ZM274.63,73h.71v7.66h-.71ZM264,77.35a2.33,2.33,0,0,0-.41-.91,2,2,0,0,0-.73-.55,2.19,2.19,0,0,0-.94-.21,2,2,0,0,0-1.41.53,2.32,2.32,0,0,0-.65,1.14Zm0,1.49.6.31a3.13,3.13,0,0,1-.69.93,2.54,2.54,0,0,1-.87.54,2.9,2.9,0,0,1-1.09.19,2.67,2.67,0,0,1-2.13-.89,3,3,0,0,1-.11-3.87,2.66,2.66,0,0,1,2.2-1,2.71,2.71,0,0,1,2.26,1.07,2.93,2.93,0,0,1,.61,1.88h-5a2.25,2.25,0,0,0,.61,1.58,2,2,0,0,0,1.48.61,2.63,2.63,0,0,0,.83-.14,2.37,2.37,0,0,0,.68-.39A3.24,3.24,0,0,0,264,78.84Zm-16.23-5.76h.71v2.06h1.12v.62h-1.12v4.91h-.71V75.76h-1v-.62h1Zm-15.61,2.06h.71v1a2.94,2.94,0,0,1,.94-.84,2.34,2.34,0,0,1,1.13-.28,2,2,0,0,1,1.11.31,1.85,1.85,0,0,1,.71.85,4.51,4.51,0,0,1,.23,1.66v2.84h-.71V78a6.79,6.79,0,0,0-.08-1.28,1.31,1.31,0,0,0-1.4-1.1,1.79,1.79,0,0,0-1.16.43,2,2,0,0,0-.67,1,7.31,7.31,0,0,0-.1,1.51v2h-.71Zm-10.84,0H222v5.53h-.71Zm.35-2.27a.56.56,0,0,1,.42.18.57.57,0,0,1,.17.41.61.61,0,0,1-.17.42.59.59,0,0,1-.42.17.56.56,0,0,1-.4-.17.58.58,0,0,1-.18-.42.54.54,0,0,1,.18-.41A.53.53,0,0,1,221.66,72.87ZM197,75.7a2,2,0,0,0-1.52.66,2.15,2.15,0,0,0-.64,1.58,2.24,2.24,0,0,0,.29,1.11,2,2,0,0,0,.79.8,2.22,2.22,0,0,0,2.16,0,2,2,0,0,0,.79-.8,2.24,2.24,0,0,0,.29-1.11,2.15,2.15,0,0,0-.64-1.58A2,2,0,0,0,197,75.7Zm0-.69a2.75,2.75,0,0,1,2.12.92,2.94,2.94,0,0,1,0,4,2.92,2.92,0,0,1-4.16,0,2.93,2.93,0,0,1,0-4A2.74,2.74,0,0,1,197,75Zm-14.18-1.93h.71v2.06h1.12v.62h-1.12v4.91h-.71V75.76h-1v-.62h1Zm-11.45,2.06h.71v5.53h-.71Zm.35-2.27a.56.56,0,0,1,.42.18.57.57,0,0,1,.17.41.61.61,0,0,1-.17.42.59.59,0,0,1-.42.17.58.58,0,0,1-.41-.17.61.61,0,0,1-.17-.42.57.57,0,0,1,.17-.41A.55.55,0,0,1,171.76,72.87ZM158.4,75.7a2.07,2.07,0,0,0-1.09.29,2.15,2.15,0,0,0-.8.81,2.21,2.21,0,0,0-.3,1.12,2.26,2.26,0,0,0,.3,1.11,2.13,2.13,0,0,0,.81.82,2,2,0,0,0,1.08.3,2.23,2.23,0,0,0,1.1-.29,2.08,2.08,0,0,0,.81-.8,2.34,2.34,0,0,0,.28-1.13,2.19,2.19,0,0,0-.63-1.59A2.09,2.09,0,0,0,158.4,75.7ZM161.26,73v7.66h-.71v-1a3.1,3.1,0,0,1-1,.82,2.8,2.8,0,0,1-3.21-.58,2.95,2.95,0,0,1,0-4.11,2.71,2.71,0,0,1,2-.84,2.66,2.66,0,0,1,1.23.29,2.74,2.74,0,0,1,1,.87V73Zm-18-.46h1.09l-1.49,1.56h-.7Zm1.73,4.8a2.48,2.48,0,0,0-.42-.91,1.92,1.92,0,0,0-.72-.55,2.23,2.23,0,0,0-1-.21,2.06,2.06,0,0,0-1.41.53,2.4,2.4,0,0,0-.65,1.14Zm0,1.49.6.31a3.11,3.11,0,0,1-.68.93,2.64,2.64,0,0,1-.87.54,3,3,0,0,1-1.1.19,2.66,2.66,0,0,1-2.12-.89,3,3,0,0,1-.12-3.87,2.67,2.67,0,0,1,2.2-1,2.73,2.73,0,0,1,2.27,1.07,3,3,0,0,1,.61,1.88h-5a2.26,2.26,0,0,0,.62,1.58,2,2,0,0,0,1.48.61,2.57,2.57,0,0,0,.82-.14,2.13,2.13,0,0,0,.68-.39A3.24,3.24,0,0,0,145,78.84Zm-16.72-3.7H129V76a2.6,2.6,0,0,1,.69-.71,1.4,1.4,0,0,1,.75-.23,1.23,1.23,0,0,1,.63.19l-.37.59a1,1,0,0,0-.37-.09,1,1,0,0,0-.69.29,1.84,1.84,0,0,0-.51.9A9.4,9.4,0,0,0,129,78.8v1.87h-.73Zm-9.74,1.15-.56.35a2.4,2.4,0,0,0-2-1,2.34,2.34,0,0,0-1.68.65,2.12,2.12,0,0,0-.67,1.58,2.16,2.16,0,0,0,.31,1.13,2.1,2.1,0,0,0,.84.83,2.55,2.55,0,0,0,1.21.29,2.44,2.44,0,0,0,2-1l.56.37a2.66,2.66,0,0,1-1.06.93,3.44,3.44,0,0,1-1.53.33,3,3,0,0,1-2.18-.83,2.71,2.71,0,0,1-.87-2,2.81,2.81,0,0,1,.41-1.49,2.93,2.93,0,0,1,1.11-1.07A3.32,3.32,0,0,1,116,75a3.47,3.47,0,0,1,1.07.16,3.22,3.22,0,0,1,.87.44A2.47,2.47,0,0,1,118.53,76.29Z"/><path class="cls-6" d="M359.11,77.35a2.48,2.48,0,0,0-.42-.91,1.88,1.88,0,0,0-.73-.55,2.19,2.19,0,0,0-.94-.21,2,2,0,0,0-1.41.53,2.32,2.32,0,0,0-.65,1.14Zm0,1.49.6.31a3.29,3.29,0,0,1-.68.93,2.58,2.58,0,0,1-.88.54,2.86,2.86,0,0,1-1.09.19,2.65,2.65,0,0,1-2.12-.89,3,3,0,0,1-.12-3.87,2.67,2.67,0,0,1,2.2-1,2.71,2.71,0,0,1,2.26,1.07,3,3,0,0,1,.62,1.88h-5a2.21,2.21,0,0,0,.62,1.58,2,2,0,0,0,1.47.61,2.58,2.58,0,0,0,.83-.14,2.24,2.24,0,0,0,.68-.39A3.24,3.24,0,0,0,359.1,78.84Zm-16.23-5.76h.71v2.06h1.12v.62h-1.12v4.91h-.71V75.76h-1v-.62h1Zm-15.61,2.06H328v1a2.87,2.87,0,0,1,.95-.84,2.28,2.28,0,0,1,1.13-.28,2,2,0,0,1,1.1.31,1.85,1.85,0,0,1,.71.85,4.51,4.51,0,0,1,.23,1.66v2.84h-.71V78a6,6,0,0,0-.08-1.28,1.49,1.49,0,0,0-.48-.82,1.46,1.46,0,0,0-.92-.28,1.79,1.79,0,0,0-1.16.43,2,2,0,0,0-.67,1,7.31,7.31,0,0,0-.1,1.51v2h-.71Zm-10.74,2.21a2.33,2.33,0,0,0-.41-.91,2,2,0,0,0-.73-.55,2.23,2.23,0,0,0-.95-.21,2,2,0,0,0-1.4.53,2.25,2.25,0,0,0-.65,1.14Zm0,1.49.59.31a3,3,0,0,1-.68.93,2.64,2.64,0,0,1-.87.54,2.92,2.92,0,0,1-1.1.19,2.66,2.66,0,0,1-2.12-.89,3,3,0,0,1-.76-2,2.9,2.9,0,0,1,.65-1.87,2.65,2.65,0,0,1,2.19-1,2.72,2.72,0,0,1,2.27,1.07A2.93,2.93,0,0,1,317.3,78h-5a2.26,2.26,0,0,0,.62,1.58,2,2,0,0,0,1.48.61,2.63,2.63,0,0,0,.83-.14,2.37,2.37,0,0,0,.68-.39A3.24,3.24,0,0,0,316.52,78.84ZM298.87,75.7a2.18,2.18,0,0,0-1.12.29,2,2,0,0,0-.81.8,2.21,2.21,0,0,0-.3,1.12,2,2,0,0,0,.61,1.5,2.4,2.4,0,0,0,3.16,0,2.13,2.13,0,0,0,.6-1.55,2.3,2.3,0,0,0-.28-1.12A2,2,0,0,0,300,76,2.12,2.12,0,0,0,298.87,75.7Zm2.1-.56h.71v4.4a5.3,5.3,0,0,1-.2,1.7,2.26,2.26,0,0,1-1,1.18,3.24,3.24,0,0,1-1.66.41,4,4,0,0,1-1.28-.2,2.68,2.68,0,0,1-.92-.55,3.32,3.32,0,0,1-.65-1h.77a2,2,0,0,0,.81.81,3,3,0,0,0,2.47,0,1.65,1.65,0,0,0,.71-.67A3.13,3.13,0,0,0,301,79.9v-.28a2.58,2.58,0,0,1-1,.78,2.84,2.84,0,0,1-1.23.27,2.76,2.76,0,0,1-1.43-.38,2.66,2.66,0,0,1-1-1,2.88,2.88,0,0,1,0-2.84A2.88,2.88,0,0,1,298.78,75a2.66,2.66,0,0,1,1.16.25,3.13,3.13,0,0,1,1,.84Zm-15.61,0h.71v5.53h-.71Zm.35-2.27a.62.62,0,0,1,.59.59.58.58,0,0,1-.18.42.57.57,0,0,1-.41.17.58.58,0,0,1-.41-.17.61.61,0,0,1-.17-.42.57.57,0,0,1,.17-.41A.55.55,0,0,1,285.71,72.87ZM274.63,73h.71v7.66h-.71ZM264,77.35a2.33,2.33,0,0,0-.41-.91,2,2,0,0,0-.73-.55,2.19,2.19,0,0,0-.94-.21,2,2,0,0,0-1.41.53,2.32,2.32,0,0,0-.65,1.14Zm0,1.49.6.31a3.13,3.13,0,0,1-.69.93,2.54,2.54,0,0,1-.87.54,2.9,2.9,0,0,1-1.09.19,2.67,2.67,0,0,1-2.13-.89,3,3,0,0,1-.11-3.87,2.66,2.66,0,0,1,2.2-1,2.71,2.71,0,0,1,2.26,1.07,2.93,2.93,0,0,1,.61,1.88h-5a2.25,2.25,0,0,0,.61,1.58,2,2,0,0,0,1.48.61,2.63,2.63,0,0,0,.83-.14,2.37,2.37,0,0,0,.68-.39A3.24,3.24,0,0,0,264,78.84Zm-16.23-5.76h.71v2.06h1.12v.62h-1.12v4.91h-.71V75.76h-1v-.62h1Zm-15.61,2.06h.71v1a2.94,2.94,0,0,1,.94-.84,2.34,2.34,0,0,1,1.13-.28,2,2,0,0,1,1.11.31,1.85,1.85,0,0,1,.71.85,4.51,4.51,0,0,1,.23,1.66v2.84h-.71V78a6.79,6.79,0,0,0-.08-1.28,1.31,1.31,0,0,0-1.4-1.1,1.79,1.79,0,0,0-1.16.43,2,2,0,0,0-.67,1,7.31,7.31,0,0,0-.1,1.51v2h-.71Zm-10.84,0H222v5.53h-.71Zm.35-2.27a.56.56,0,0,1,.42.18.57.57,0,0,1,.17.41.61.61,0,0,1-.17.42.59.59,0,0,1-.42.17.56.56,0,0,1-.4-.17.58.58,0,0,1-.18-.42.54.54,0,0,1,.18-.41A.53.53,0,0,1,221.66,72.87ZM197,75.7a2,2,0,0,0-1.52.66,2.15,2.15,0,0,0-.64,1.58,2.24,2.24,0,0,0,.29,1.11,2,2,0,0,0,.79.8,2.22,2.22,0,0,0,2.16,0,2,2,0,0,0,.79-.8,2.24,2.24,0,0,0,.29-1.11,2.15,2.15,0,0,0-.64-1.58A2,2,0,0,0,197,75.7Zm0-.69a2.75,2.75,0,0,1,2.12.92,2.94,2.94,0,0,1,0,4,2.92,2.92,0,0,1-4.16,0,2.93,2.93,0,0,1,0-4A2.74,2.74,0,0,1,197,75Zm-14.18-1.93h.71v2.06h1.12v.62h-1.12v4.91h-.71V75.76h-1v-.62h1Zm-11.45,2.06h.71v5.53h-.71Zm.35-2.27a.56.56,0,0,1,.42.18.57.57,0,0,1,.17.41.61.61,0,0,1-.17.42.59.59,0,0,1-.42.17.58.58,0,0,1-.41-.17.61.61,0,0,1-.17-.42.57.57,0,0,1,.17-.41A.55.55,0,0,1,171.76,72.87ZM158.4,75.7a2.07,2.07,0,0,0-1.09.29,2.15,2.15,0,0,0-.8.81,2.21,2.21,0,0,0-.3,1.12,2.26,2.26,0,0,0,.3,1.11,2.13,2.13,0,0,0,.81.82,2,2,0,0,0,1.08.3,2.23,2.23,0,0,0,1.1-.29,2.08,2.08,0,0,0,.81-.8,2.34,2.34,0,0,0,.28-1.13,2.19,2.19,0,0,0-.63-1.59A2.09,2.09,0,0,0,158.4,75.7ZM161.26,73v7.66h-.71v-1a3.1,3.1,0,0,1-1,.82,2.8,2.8,0,0,1-3.21-.58,2.95,2.95,0,0,1,0-4.11,2.71,2.71,0,0,1,2-.84,2.66,2.66,0,0,1,1.23.29,2.74,2.74,0,0,1,1,.87V73Zm-18-.46h1.09l-1.49,1.56h-.7Zm1.73,4.8a2.48,2.48,0,0,0-.42-.91,1.92,1.92,0,0,0-.72-.55,2.23,2.23,0,0,0-1-.21,2.06,2.06,0,0,0-1.41.53,2.4,2.4,0,0,0-.65,1.14Zm0,1.49.6.31a3.11,3.11,0,0,1-.68.93,2.64,2.64,0,0,1-.87.54,3,3,0,0,1-1.1.19,2.66,2.66,0,0,1-2.12-.89,3,3,0,0,1-.12-3.87,2.67,2.67,0,0,1,2.2-1,2.73,2.73,0,0,1,2.27,1.07,3,3,0,0,1,.61,1.88h-5a2.26,2.26,0,0,0,.62,1.58,2,2,0,0,0,1.48.61,2.57,2.57,0,0,0,.82-.14,2.13,2.13,0,0,0,.68-.39A3.24,3.24,0,0,0,145,78.84Zm-16.72-3.7H129V76a2.6,2.6,0,0,1,.69-.71,1.4,1.4,0,0,1,.75-.23,1.23,1.23,0,0,1,.63.19l-.37.59a1,1,0,0,0-.37-.09,1,1,0,0,0-.69.29,1.84,1.84,0,0,0-.51.9A9.4,9.4,0,0,0,129,78.8v1.87h-.73Zm-9.74,1.15-.56.35a2.4,2.4,0,0,0-2-1,2.34,2.34,0,0,0-1.68.65,2.12,2.12,0,0,0-.67,1.58,2.16,2.16,0,0,0,.31,1.13,2.1,2.1,0,0,0,.84.83,2.55,2.55,0,0,0,1.21.29,2.44,2.44,0,0,0,2-1l.56.37a2.66,2.66,0,0,1-1.06.93,3.44,3.44,0,0,1-1.53.33,3,3,0,0,1-2.18-.83,2.71,2.71,0,0,1-.87-2,2.81,2.81,0,0,1,.41-1.49,2.93,2.93,0,0,1,1.11-1.07A3.32,3.32,0,0,1,116,75a3.47,3.47,0,0,1,1.07.16,3.22,3.22,0,0,1,.87.44A2.47,2.47,0,0,1,118.53,76.29Z"/><line class="cls-7" x1="78.03" y1="69.51" x2="394.47" y2="69.51"/><line class="cls-8" x1="78.03" y1="69.51" x2="394.47" y2="69.51"/></g></g></svg>